<?xml version="1.0" standalone="no"?>
<!DOCTYPE svg PUBLIC "-//W3C//DTD SVG 20010904//EN"
 "http://www.w3.org/TR/2001/REC-SVG-20010904/DTD/svg10.dtd">
<svg version="1.0" xmlns="http://www.w3.org/2000/svg"
 width="300.000000pt" height="434.000000pt" viewBox="0 0 300.000000 434.000000"
 preserveAspectRatio="xMidYMid meet">
<metadata>
Created by potrace 1.10, written by Peter Selinger 2001-2011
</metadata>
<g transform="translate(0.000000,434.000000) scale(0.100000,-0.100000)"
fill="#000000" stroke="none">
<path d="M1427 3523 c-3 -5 -5 -30 -5 -58 1 -27 3 -42 5 -32 3 9 8 15 13 12 5
-3 6 -13 3 -22 -4 -11 -3 -14 6 -9 6 4 11 17 9 29 -2 13 2 21 10 20 15 -4 15
-4 1 36 -10 29 -32 41 -42 24z m28 -31 c0 -18 -20 -15 -23 4 -3 10 1 15 10 12
7 -3 13 -10 13 -16z"/>
<path d="M1341 3481 c-11 -15 -18 -31 -14 -35 3 -3 1 -6 -5 -6 -7 0 -12 -7
-12 -15 0 -8 5 -15 11 -15 5 0 7 6 4 13 -4 6 1 3 10 -8 12 -14 16 -16 15 -5
-4 28 0 39 18 43 16 4 16 5 -1 6 -14 1 -15 4 -5 20 11 19 38 18 38 -1 0 -5 -3
-7 -7 -5 -5 3 -6 -16 -4 -41 3 -36 5 -42 11 -26 8 21 13 58 11 84 -2 28 -48
22 -70 -9z"/>
<path d="M1503 3472 c-35 -44 -43 -63 -17 -41 13 11 14 9 8 -17 -4 -16 -10
-35 -14 -43 -6 -11 5 -89 14 -98 1 -1 3 23 3 55 2 94 7 129 21 129 13 0 17
-33 4 -39 -4 -1 -5 -16 -1 -33 5 -27 7 -25 14 23 4 28 12 52 17 52 5 0 6 -5 3
-11 -8 -12 3 -64 12 -55 4 3 8 29 9 57 2 49 2 50 -16 34 -17 -16 -19 -15 -22
5 -3 20 -6 19 -35 -18z"/>
<path d="M1617 3455 c-39 -27 -49 -42 -20 -31 15 6 15 4 -2 -14 -10 -11 -13
-20 -7 -20 7 0 12 -8 12 -17 0 -13 -3 -14 -12 -5 -7 7 -16 12 -20 12 -4 0 0
-8 10 -18 16 -17 18 -17 35 10 9 16 17 31 17 34 0 4 -8 0 -17 -7 -16 -13 -17
-12 -5 3 18 23 45 13 32 -12 -5 -9 -6 -21 -2 -25 4 -5 2 -5 -5 -1 -9 5 -9 -1
-3 -24 8 -27 -5 -123 -26 -191 -2 -9 2 -16 11 -16 10 0 13 7 9 21 -2 12 4 57
16 101 15 61 27 86 50 107 16 15 25 30 20 33 -11 7 20 45 37 45 7 0 13 -4 13
-10 0 -5 -6 -7 -13 -4 -8 3 -13 -5 -15 -23 -1 -18 1 -23 6 -15 5 7 16 10 25 6
9 -3 17 -2 17 4 0 5 11 7 25 4 14 -2 25 -9 25 -14 0 -5 -5 -6 -10 -3 -6 4 -25
3 -43 -1 -31 -7 -32 -8 -7 -14 14 -4 45 -5 69 -2 43 5 44 4 39 -21 -4 -18 -1
-24 9 -20 7 3 13 11 13 19 0 11 5 10 20 -4 l21 -17 -23 -7 c-20 -5 -21 -6 -3
-7 11 -1 25 -11 30 -23 6 -12 17 -23 25 -25 13 -4 12 -2 -1 9 -17 14 -22 48
-6 48 5 0 7 -6 4 -14 -6 -16 11 -36 32 -36 11 0 11 3 -3 19 -15 17 -15 19 -1
25 11 4 14 2 9 -6 -5 -7 -3 -8 6 -3 9 6 11 4 5 -5 -6 -9 -4 -11 4 -5 10 6 11
3 2 -14 -7 -12 -9 -27 -5 -34 5 -8 2 -8 -9 1 -14 12 -19 12 -32 -2 -17 -17
-40 -22 -31 -7 6 10 -19 9 -29 -1 -5 -5 49 -27 102 -43 11 -3 26 -12 32 -19 8
-10 4 -11 -21 -8 -21 3 -29 1 -24 -7 4 -6 15 -11 24 -11 9 0 24 -5 32 -11 12
-9 11 -10 -7 -6 -26 6 -29 0 -10 -17 7 -6 10 -10 8 -9 -2 2 -10 -2 -18 -8 -13
-12 -18 -2 -14 28 2 14 -15 15 -131 10 -9 -1 -14 -5 -12 -9 7 -11 -8 -10 -26
2 -12 8 -12 10 -1 10 8 0 12 3 9 6 -4 3 -21 -2 -40 -12 -20 -11 -28 -19 -19
-22 7 -2 18 2 23 9 7 11 11 11 15 2 6 -15 51 -17 73 -3 9 6 17 5 22 -3 5 -8
11 -8 16 -2 4 6 16 10 26 10 16 0 25 -9 43 -44 1 -1 8 1 15 5 21 14 45 14 45
1 0 -7 4 -20 8 -31 7 -16 6 -17 -13 -7 -26 14 -33 14 -30 0 2 -6 -2 -13 -9
-16 -8 -3 -11 3 -8 16 2 12 -1 21 -7 21 -5 0 -8 -7 -4 -15 8 -23 -7 -18 -23 6
-11 18 -11 23 1 31 8 5 2 6 -17 2 -23 -4 -26 -3 -15 5 8 6 10 11 4 11 -6 0
-18 -8 -25 -17 -8 -9 -9 -14 -3 -10 6 4 20 -3 30 -15 11 -11 36 -31 56 -44 40
-26 64 -33 33 -11 -12 9 -14 16 -7 21 6 4 20 -2 32 -14 21 -21 27 -50 9 -50
-5 0 -7 5 -3 11 4 6 -1 9 -12 7 -11 -1 -30 5 -44 15 -13 9 -30 17 -37 17 -7 0
-13 4 -13 9 0 5 -16 18 -35 30 -25 15 -36 17 -41 8 -4 -7 -4 -9 0 -5 8 7 40
-21 49 -43 3 -9 6 -10 6 -2 1 7 13 1 27 -12 15 -14 30 -22 35 -20 4 3 11 0 15
-6 5 -8 3 -9 -7 -4 -12 8 -12 6 0 -8 7 -9 21 -17 30 -16 12 0 12 2 -3 8 -16 6
-17 9 -5 13 8 3 23 0 34 -8 10 -8 13 -14 6 -14 -7 0 -9 -4 -6 -10 10 -16 19
-12 31 13 8 17 6 28 -9 50 -11 16 -17 31 -14 33 3 3 12 -7 20 -22 l15 -28 0
27 c0 15 -4 24 -8 22 -4 -3 -10 2 -13 10 -4 10 -1 12 10 8 13 -5 14 -3 4 16
-7 12 -9 30 -6 41 3 10 1 21 -5 25 -9 5 -16 -31 -11 -58 1 -5 -3 -6 -8 -3 -5
3 -8 22 -7 42 1 20 -2 38 -7 41 -4 2 -5 13 -2 24 4 10 2 26 -3 35 -8 15 -10
15 -15 0 -4 -9 -2 -16 3 -16 6 0 10 -5 10 -10 0 -6 -8 -5 -20 2 -11 7 -20 16
-20 21 0 4 5 5 12 1 8 -5 9 0 5 17 -4 13 -7 34 -7 47 0 32 -37 65 -66 59 -14
-2 -27 0 -31 6 -4 6 -1 7 6 2 9 -5 9 -1 -1 14 -14 23 -49 37 -72 28 -8 -3 -20
0 -26 8 -7 8 -21 17 -33 21 -12 4 -28 13 -35 21 -14 14 -66 14 -130 -1 -13 -3
-20 -1 -17 5 4 5 10 7 15 4 12 -8 24 15 13 26 -5 5 -24 -2 -46 -16z m83 -35
c-7 -4 -10 -12 -7 -17 3 -5 -5 -21 -19 -36 -13 -14 -24 -32 -24 -38 0 -7 -3
-10 -6 -6 -4 3 -3 14 1 24 7 16 11 28 18 58 6 23 19 34 33 28 12 -4 12 -8 4
-13z m305 -191 c11 -17 -1 -21 -15 -4 -8 9 -8 15 -2 15 6 0 14 -5 17 -11z"/>
<path d="M1245 3454 c-10 -8 -27 -14 -36 -14 -10 0 -20 -9 -24 -19 -4 -14 -19
-22 -50 -27 -29 -4 -43 -10 -39 -18 3 -6 -2 -2 -11 9 -11 12 -15 14 -12 5 2
-8 -2 -23 -11 -32 -16 -20 -3 -25 15 -7 9 9 19 6 39 -10 15 -12 29 -19 32 -16
3 3 -4 12 -16 21 -23 16 -29 34 -11 34 5 0 7 -4 4 -10 -6 -9 10 -14 43 -13 6
1 12 -3 12 -8 0 -5 7 -5 17 -2 11 4 14 3 9 -5 -5 -8 -1 -10 10 -5 12 4 15 3
10 -6 -5 -8 -19 -10 -39 -5 -18 3 -29 3 -25 -1 4 -4 24 -9 45 -10 21 -2 56
-10 78 -19 l40 -17 -29 25 c-17 14 -36 22 -45 19 -9 -4 -13 -3 -9 2 4 4 0 14
-10 22 -15 13 -15 14 8 9 14 -3 32 -1 40 4 11 7 11 10 2 10 -7 0 -10 5 -6 11
4 8 13 4 25 -12 22 -29 25 -12 5 27 -11 21 -12 33 -4 48 6 12 7 18 3 14 -4 -4
-15 -3 -24 1 -11 6 -23 4 -36 -5z m38 -45 c5 -4 -1 -13 -13 -22 -14 -10 -17
-16 -9 -19 7 -2 -7 -4 -31 -4 -25 1 -45 6 -48 14 -4 14 14 17 22 3 3 -5 15 -7
27 -4 16 5 18 8 7 15 -8 6 -5 7 12 2 25 -7 25 -6 7 14 -11 11 -16 26 -12 33 6
8 11 6 18 -7 6 -11 15 -22 20 -25z m-60 -4 c-3 -8 -9 -15 -14 -15 -10 0 -12
24 -3 33 11 11 24 -3 17 -18z m-53 -25 c0 -5 -4 -10 -10 -10 -5 0 -10 5 -10
10 0 6 5 10 10 10 6 0 10 -4 10 -10z"/>
<path d="M1100 3430 c-18 -12 -2 -12 25 0 13 6 15 9 5 9 -8 0 -22 -4 -30 -9z"/>
<path d="M1360 3424 c0 -8 5 -12 10 -9 6 4 8 11 5 16 -9 14 -15 11 -15 -7z"/>
<path d="M1386 3362 c-4 -12 -2 -32 5 -44 7 -13 12 -25 12 -28 0 -3 3 -14 7
-25 5 -11 13 -33 19 -49 7 -16 14 -27 16 -24 2 2 -7 37 -21 76 -14 40 -23 76
-20 80 3 4 1 14 -4 21 -6 10 -9 9 -14 -7z"/>
<path d="M1330 3345 c-9 -11 -16 -13 -24 -5 -25 25 -27 7 -1 -20 16 -16 31
-28 33 -25 3 3 14 -3 26 -12 18 -17 18 -15 -3 21 -17 31 -19 41 -9 47 8 6 9 9
2 9 -6 0 -17 -7 -24 -15z m10 -36 c0 -6 -4 -7 -10 -4 -5 3 -10 11 -10 16 0 6
5 7 10 4 6 -3 10 -11 10 -16z"/>
<path d="M1555 3343 c2 -10 4 -28 4 -41 1 -13 5 -21 9 -18 10 6 3 64 -8 71 -5
3 -7 -3 -5 -12z"/>
<path d="M1846 3344 c-20 -19 -20 -25 -2 -18 8 3 17 12 20 20 7 18 1 18 -18
-2z"/>
<path d="M1066 3335 c-11 -8 -16 -18 -12 -22 4 -5 13 0 21 10 12 16 13 16 18
-4 4 -15 2 -19 -9 -15 -9 4 -18 -3 -24 -19 -7 -18 -17 -25 -35 -25 -25 0 -65
-31 -65 -50 0 -5 -15 -27 -34 -47 -34 -39 -53 -108 -31 -117 6 -3 5 -5 -2 -5
-7 -1 -13 -6 -13 -12 0 -5 5 -7 10 -4 6 3 10 2 10 -3 0 -6 -7 -12 -15 -16 -10
-4 -13 -14 -9 -36 5 -21 3 -30 -6 -30 -9 0 -11 13 -7 46 3 29 1 41 -4 33 -11
-17 -12 -83 -2 -93 4 -4 8 -20 9 -36 1 -15 9 -43 18 -61 9 -18 14 -35 11 -37
-3 -3 -5 1 -5 8 0 7 -3 10 -6 7 -4 -4 -2 -12 4 -19 39 -48 49 -211 24 -420
-13 -106 -8 -134 30 -164 16 -13 29 -43 42 -94 23 -92 60 -166 121 -245 68
-87 169 -176 205 -182 8 -1 19 -8 25 -15 5 -7 19 -14 30 -15 11 -1 41 -6 68
-11 27 -5 50 -6 53 -1 8 14 64 11 64 -3 0 -10 3 -9 9 1 5 7 17 14 27 15 59 6
93 20 113 47 15 20 17 27 6 23 -8 -4 -15 -10 -15 -16 0 -5 -5 -6 -12 -2 -6 4
-8 3 -4 -4 10 -17 -57 -32 -170 -38 -79 -4 -104 -2 -115 9 -8 7 -20 12 -27 9
-7 -2 -28 8 -47 22 -19 15 -38 25 -44 24 -17 -5 -118 90 -163 154 -58 81 -81
126 -72 141 4 7 3 8 -2 4 -9 -9 -43 84 -44 120 0 11 -16 41 -36 64 -20 24 -32
45 -27 46 6 2 8 26 5 53 -2 27 0 62 6 77 5 16 18 103 28 195 11 98 22 164 27
161 6 -3 2 8 -9 25 -15 26 -20 29 -27 16 -5 -8 -6 -18 -3 -21 3 -4 6 -1 6 6 0
7 4 10 9 6 5 -3 7 -22 4 -43 -7 -43 -32 -97 -33 -70 0 9 5 20 10 23 12 7 14
36 3 34 -21 -3 -24 3 -12 18 12 14 12 16 0 8 -11 -6 -13 -4 -8 8 3 9 2 19 -3
22 -5 3 -7 27 -6 54 4 58 -9 90 -19 45 -4 -16 -8 -33 -9 -39 -2 -5 -5 9 -7 32
-2 23 -1 40 2 37 11 -6 28 79 23 111 -5 24 -3 27 6 15 9 -12 10 -9 5 13 -4 21
-3 27 6 21 9 -5 10 -2 6 9 -3 10 -3 17 1 17 9 0 36 60 35 78 -1 7 2 11 5 8 3
-3 12 0 20 7 13 9 14 9 8 0 -9 -16 6 -17 20 -3 6 6 21 12 34 15 12 2 25 7 29
11 3 4 -2 4 -11 1 -10 -3 -20 -2 -23 3 -4 6 0 10 7 10 9 0 9 3 -2 10 -8 5 -19
10 -25 10 -5 0 -4 -4 2 -8 10 -6 10 -12 -3 -28 -10 -13 -17 -15 -20 -7 -3 7
-12 9 -20 6 -8 -3 -14 1 -14 8 0 7 3 9 7 6 3 -4 11 1 18 10 7 9 21 17 31 18
27 2 78 30 95 52 13 16 13 17 -3 4 -16 -12 -18 -11 -19 3 -3 35 -4 39 -14 42
-5 2 -19 -3 -29 -11z m-136 -214 c-11 -21 -30 -37 -30 -25 0 8 30 44 37 44 2
0 -1 -9 -7 -19z m-20 -141 c0 -5 -4 -10 -10 -10 -5 0 -10 5 -10 10 0 6 5 10
10 10 6 0 10 -4 10 -10z m31 -363 c-10 -9 -11 -8 -5 6 3 10 9 15 12 12 3 -3 0
-11 -7 -18z m350 -914 c13 -16 12 -17 -3 -4 -10 7 -18 15 -18 17 0 8 8 3 21
-13z"/>
<path d="M1445 3305 c3 -27 7 -58 8 -67 1 -9 5 -14 10 -11 4 2 6 12 3 21 -3
10 -7 35 -11 56 -3 22 -8 42 -11 45 -3 3 -3 -16 1 -44z"/>
<path d="M1702 3329 c-7 -11 -16 -17 -21 -15 -9 6 -35 -44 -27 -52 3 -3 10 6
15 19 5 13 10 20 10 16 1 -5 13 1 27 12 48 38 48 22 0 -21 -43 -40 -47 -47
-52 -103 -4 -33 -10 -61 -15 -63 -5 -2 -9 -11 -9 -19 0 -9 18 8 41 36 42 53
79 81 79 61 0 -6 7 -4 16 4 8 9 20 14 25 11 11 -7 46 11 73 38 l21 21 -28 -18
c-16 -10 -34 -15 -42 -13 -7 3 -23 -1 -34 -10 -12 -8 -25 -13 -27 -10 -7 6 56
51 75 54 8 1 21 9 30 19 15 16 15 16 -8 1 -13 -8 -29 -13 -37 -10 -7 2 -27
-11 -44 -31 -18 -19 -35 -34 -40 -33 -4 1 -20 -11 -34 -27 -15 -15 -29 -26
-32 -23 -8 7 56 77 68 74 6 -1 12 6 13 16 3 13 -5 10 -32 -13 -19 -17 -37 -29
-39 -27 -9 8 9 37 22 37 8 0 19 10 24 23 5 12 9 18 10 12 0 -6 3 -5 8 1 4 6
25 21 47 33 22 12 31 19 20 15 -27 -10 -79 -11 -85 -2 -3 4 -11 -2 -18 -13z"/>
<path d="M1529 3326 c-3 -3 -3 -27 1 -53 4 -26 5 -65 2 -85 -4 -33 -2 -37 12
-32 18 7 18 6 -3 137 -3 22 -9 36 -12 33z"/>
<path d="M1597 3310 c-4 -14 -7 -36 -7 -50 0 -20 -2 -22 -10 -10 -8 13 -10 12
-10 -2 0 -10 4 -18 9 -18 5 0 7 -21 5 -47 -2 -27 3 -8 11 42 15 86 16 136 2
85z"/>
<path d="M1022 3308 c-7 -7 -12 -16 -12 -21 0 -5 7 -1 16 8 9 9 14 18 12 20
-2 3 -10 -1 -16 -7z"/>
<path d="M1158 3303 c7 -3 16 -2 19 1 4 3 -2 6 -13 5 -11 0 -14 -3 -6 -6z"/>
<path d="M1166 3283 c-2 -2 -13 -5 -24 -8 -12 -2 -30 -9 -39 -15 -15 -9 -12
-10 12 -4 65 15 127 12 185 -8 33 -12 57 -25 54 -30 -7 -12 19 -5 29 7 5 6 6
0 4 -13 -3 -13 -3 -21 0 -18 4 3 17 -4 30 -16 31 -29 29 -15 -3 28 -14 18 -31
31 -36 28 -5 -3 -15 1 -21 9 -19 24 -175 56 -191 40z"/>
<path d="M1474 3257 c4 -15 1 -37 -5 -50 -11 -19 -10 -20 3 -10 13 11 15 8 16
-17 1 -35 -1 -36 -22 -14 -12 11 -16 12 -16 2 0 -7 12 -21 25 -31 17 -12 23
-13 19 -4 -3 8 2 20 11 27 8 7 15 19 15 27 0 13 -2 13 -17 2 -15 -13 -15 -12
-5 8 14 26 16 44 2 23 -8 -12 -10 -10 -10 10 0 14 -5 32 -11 40 -8 12 -9 9 -5
-13z"/>
<path d="M1155 3241 c-29 -7 -29 -7 -6 -13 13 -4 20 -11 16 -17 -3 -6 -12 -9
-18 -5 -7 3 4 -8 23 -24 19 -17 38 -28 42 -26 5 3 8 -1 8 -10 0 -19 -30 -14
-41 7 -9 16 -76 43 -85 34 -3 -3 5 -8 18 -12 13 -4 38 -18 56 -32 17 -13 32
-21 32 -17 0 3 7 1 15 -6 8 -7 15 -9 15 -6 0 4 10 0 22 -8 12 -9 29 -16 38
-16 8 1 3 7 -12 16 -29 15 -38 30 -13 21 8 -4 17 -2 20 2 10 18 77 9 98 -12
24 -24 44 -30 53 -15 3 5 14 2 25 -8 10 -9 19 -15 19 -12 0 9 -60 74 -60 65 0
-4 -6 -2 -14 5 -8 7 -11 17 -8 22 3 5 0 6 -7 2 -6 -4 -18 -3 -26 4 -8 6 -16 7
-19 2 -9 -14 -58 -9 -86 10 -14 9 -38 23 -55 32 l-30 15 30 -2 c17 -2 43 -12
59 -22 36 -24 56 -27 56 -10 0 19 -27 39 -35 25 -5 -8 -12 -7 -23 3 -19 15
-61 18 -107 8z m103 -68 c18 -13 30 -28 28 -32 -7 -11 -51 -5 -49 6 1 6 -12
23 -30 39 -17 16 -24 20 -14 8 23 -28 22 -41 -2 -20 -11 10 -19 26 -18 37 1
17 3 18 27 2 14 -8 40 -27 58 -40z m46 36 c-3 -5 -10 -7 -15 -3 -5 3 -7 10 -3
15 3 5 10 7 15 3 5 -3 7 -10 3 -15z m11 -49 c3 -5 1 -10 -4 -10 -6 0 -11 5
-11 10 0 6 2 10 4 10 3 0 8 -4 11 -10z m64 -3 c8 -10 7 -14 -4 -14 -8 0 -15 4
-15 8 0 5 -8 6 -17 3 -15 -5 -16 -4 -3 5 20 14 25 14 39 -2z m44 -33 c-4 14
-3 17 6 12 16 -10 9 -29 -12 -32 -9 -1 -15 2 -11 7 3 5 0 9 -6 9 -6 0 -8 5 -5
11 5 6 12 4 21 -8 13 -17 14 -17 7 1z"/>
<path d="M1090 3236 c0 -2 7 -7 16 -10 8 -3 12 -2 9 4 -6 10 -25 14 -25 6z"/>
<path d="M1015 3220 c3 -5 8 -10 11 -10 2 0 4 5 4 10 0 6 -5 10 -11 10 -5 0
-7 -4 -4 -10z"/>
<path d="M1863 3204 c0 -16 6 -17 25 -5 11 6 9 9 -5 13 -12 3 -20 0 -20 -8z"/>
<path d="M1918 3203 c6 -2 18 -2 25 0 6 3 1 5 -13 5 -14 0 -19 -2 -12 -5z"/>
<path d="M1810 3189 c-13 -6 -33 -19 -43 -30 -24 -25 -28 -80 -7 -86 13 -4 13
-3 0 6 -8 6 -10 11 -4 11 6 0 10 10 9 23 -2 23 24 52 56 62 11 4 19 11 19 16
0 5 -1 9 -2 8 -2 0 -14 -5 -28 -10z"/>
<path d="M1941 3179 c-60 -11 -63 -19 -6 -14 44 4 64 10 54 18 -2 2 -24 0 -48
-4z"/>
<path d="M1705 3137 c-25 -24 -31 -35 -17 -28 18 9 22 9 22 -2 0 -8 -10 -22
-22 -31 -19 -13 -19 -15 -3 -8 11 5 27 7 35 5 13 -4 13 -3 0 6 -11 8 -12 11
-2 11 9 0 11 7 7 20 -3 11 -2 20 3 20 8 0 26 43 19 45 -1 0 -20 -17 -42 -38z"/>
<path d="M1007 3150 c-36 -29 -61 -109 -53 -174 5 -36 3 -47 -4 -36 -7 11 -10
5 -10 -27 0 -23 5 -45 12 -49 7 -4 8 -3 4 4 -4 7 -2 12 4 12 7 0 9 8 5 19 -3
11 -1 22 5 26 6 4 8 16 5 28 -5 16 -4 18 3 8 8 -11 14 -7 31 20 12 19 21 30
21 25 0 -6 9 -1 20 10 10 10 26 25 35 32 8 7 12 18 9 24 -5 7 -1 9 9 5 23 -9
21 0 -2 13 -22 11 -47 5 -54 -14 -4 -9 3 -12 21 -9 25 3 26 3 7 -9 -11 -7 -37
-31 -57 -52 -21 -22 -38 -35 -38 -30 0 6 3 14 8 20 4 5 -1 1 -10 -9 -11 -12
-18 -14 -18 -7 0 7 16 28 36 46 19 19 32 34 28 34 -3 0 0 7 7 17 13 15 12 15
-8 3 -12 -8 -20 -17 -18 -20 4 -6 -30 -40 -39 -40 -3 0 3 18 12 39 9 22 21 36
27 33 5 -3 4 1 -3 10 -15 18 -5 29 49 52 32 14 33 15 8 16 -15 0 -38 -9 -52
-20z"/>
<path d="M1838 3163 c7 -3 16 -2 19 1 4 3 -2 6 -13 5 -11 0 -14 -3 -6 -6z"/>
<path d="M1100 3150 c13 -9 13 -10 0 -11 -8 -1 -23 0 -34 1 -23 2 -13 -16 14
-23 11 -3 18 -1 15 4 -9 14 59 -2 71 -17 6 -8 15 -14 19 -14 14 0 -28 41 -57
56 -31 16 -51 19 -28 4z"/>
<path d="M1530 3131 c0 -6 4 -13 10 -16 6 -3 7 1 4 9 -7 18 -14 21 -14 7z"/>
<path d="M1015 3120 c-18 -8 -17 -9 8 -9 16 -1 26 3 22 9 -3 6 -7 10 -8 9 -1
0 -11 -4 -22 -9z"/>
<path d="M1341 3124 c-1 -6 5 -17 12 -23 10 -8 14 -7 14 4 0 8 -4 12 -8 9 -4
-2 -10 2 -12 8 -4 8 -6 9 -6 2z"/>
<path d="M1511 3104 c0 -11 3 -14 6 -6 3 7 2 16 -1 19 -3 4 -6 -2 -5 -13z"/>
<path d="M1200 3100 c0 -13 18 -22 24 -11 3 5 -1 11 -9 15 -8 3 -15 1 -15 -4z"/>
<path d="M1854 3079 c-3 -6 -17 -9 -30 -6 -13 2 -24 0 -24 -4 0 -5 -3 -8 -7
-8 -5 1 -24 0 -43 -1 -32 -2 -33 -3 -10 -9 14 -5 34 -6 45 -3 11 2 29 4 40 4
45 1 54 -2 48 -17 -3 -9 -2 -15 3 -13 13 4 48 -24 53 -42 2 -8 5 -28 7 -44 4
-33 9 -39 29 -42 8 -1 11 4 8 13 -5 12 -7 12 -15 1 -7 -9 -8 -6 -4 11 3 14 0
31 -6 38 -15 18 -4 27 13 11 28 -26 53 -43 45 -30 -4 7 -2 12 5 12 8 0 8 4 -1
15 -8 10 -16 12 -20 6 -3 -6 -30 12 -60 42 -30 28 -59 50 -64 49 -5 -2 -6 4
-3 13 7 17 1 20 -9 4z"/>
<path d="M1880 3002 c0 -5 10 -17 22 -28 l21 -19 -18 28 c-18 28 -25 33 -25
19z"/>
<path d="M2142 2990 c0 -14 2 -19 5 -12 2 6 2 18 0 25 -3 6 -5 1 -5 -13z"/>
<path d="M1025 2971 c-3 -11 -17 -26 -30 -35 -14 -9 -25 -22 -25 -28 0 -6 16
5 35 25 19 20 35 41 35 47 0 16 -8 12 -15 -9z"/>
<path d="M2138 2930 c-3 -17 -1 -33 4 -36 4 -3 8 11 8 30 0 44 -6 47 -12 6z"/>
<path d="M2053 2897 c38 -36 54 -72 20 -46 -15 11 -16 11 -5 -1 6 -8 12 -23
11 -34 0 -12 -3 -15 -6 -8 -10 25 -22 11 -12 -15 5 -14 7 -34 4 -42 -4 -9 -10
-49 -14 -89 -6 -62 -5 -71 6 -56 11 15 13 15 13 2 0 -8 -6 -20 -13 -26 -10 -8
-16 -6 -26 10 -7 11 -8 17 -2 13 6 -3 11 1 11 9 0 9 -5 16 -11 16 -6 0 -9 8
-6 19 2 10 0 27 -6 37 -17 29 -19 55 -5 73 12 14 11 14 -4 2 -16 -12 -18 -11
-18 5 0 11 -10 30 -21 44 -16 20 -18 21 -10 4 6 -12 7 -24 3 -28 -3 -4 -2 -10
4 -14 5 -4 18 -51 29 -104 10 -54 22 -98 27 -98 5 0 7 -4 4 -9 -8 -12 13 -123
25 -135 5 -6 9 -15 9 -20 0 -6 -5 -4 -10 4 -8 13 -10 13 -10 -1 0 -9 7 -19 15
-23 20 -7 20 49 1 84 -12 20 -12 26 0 35 7 5 16 26 18 45 3 20 5 40 6 45 7 31
-1 76 -12 69 -7 -4 -8 -3 -4 5 4 6 11 9 16 6 15 -9 22 34 16 98 -4 43 -3 57 4
47 5 -8 10 -23 10 -32 0 -34 16 -25 17 10 2 61 -7 102 -22 102 -8 0 -15 -6
-15 -12 0 -7 -8 -4 -18 8 -9 12 -26 24 -37 28 -13 5 -6 -6 18 -27z m67 -55 c0
-13 -3 -12 -15 4 -19 25 -19 40 0 24 8 -7 15 -20 15 -28z m-31 -142 c0 -10 -3
-8 -9 5 -12 27 -12 43 0 25 5 -8 9 -22 9 -30z"/>
<path d="M1995 2863 c7 -27 -10 -31 -24 -5 -6 9 -11 12 -11 6 0 -6 9 -19 20
-29 11 -10 17 -22 13 -28 -4 -6 -1 -7 7 -2 10 6 12 4 7 -8 -4 -10 -2 -16 5
-14 6 1 16 -14 22 -33 11 -31 13 -32 18 -12 4 12 2 20 -3 16 -5 -3 -9 -1 -9 5
0 5 -3 17 -7 27 -4 11 -3 15 4 11 19 -12 3 27 -23 59 -22 26 -24 26 -19 7z
m29 -39 c9 -24 2 -26 -12 -4 -7 11 -8 20 -3 20 5 0 12 -7 15 -16z"/>
<path d="M1216 2713 c14 -10 14 -13 3 -13 -8 -1 -3 -7 11 -15 31 -18 43 -19
35 -2 -4 6 0 4 8 -5 8 -10 17 -18 21 -18 7 0 3 31 -7 46 -4 7 -25 14 -48 16
-35 3 -38 2 -23 -9z"/>
<path d="M1290 2726 c0 -2 8 -10 18 -17 15 -13 16 -12 3 4 -13 16 -21 21 -21
13z"/>
<path d="M1650 2715 c0 -17 -2 -18 -11 -5 -7 10 -9 11 -7 2 2 -8 7 -13 11 -13
4 1 17 1 30 2 15 0 17 2 7 6 -8 3 -18 11 -22 17 -5 7 -8 3 -8 -9z"/>
<path d="M1134 2710 c-10 -4 -30 -6 -44 -5 -26 2 -53 -23 -43 -39 4 -5 1 -6
-4 -3 -6 4 -18 -2 -27 -11 -20 -23 -33 -82 -17 -82 6 0 11 6 11 14 0 8 8 17
18 19 16 4 16 5 -1 6 -16 1 -17 3 -3 16 8 8 26 16 40 17 13 1 22 6 20 10 -5 7
19 12 53 11 7 -1 10 4 6 10 -4 7 0 8 13 3 10 -4 27 -9 37 -11 9 -2 21 -6 25
-9 5 -3 9 1 9 9 0 8 -9 17 -19 21 -10 3 -16 9 -13 14 7 11 -37 18 -61 10z m-7
-26 c-3 -3 -12 -4 -19 -1 -8 3 -5 6 6 6 11 1 17 -2 13 -5z"/>
<path d="M1725 2706 l30 -12 -44 0 c-26 0 -46 -5 -49 -12 -2 -7 -9 -9 -14 -6
-6 4 -9 3 -5 -2 3 -5 19 -8 36 -8 17 1 56 2 87 3 34 1 53 5 49 11 -3 6 -2 10
4 10 5 0 13 -5 16 -10 4 -6 10 -8 14 -5 24 14 101 -51 83 -70 -4 -5 -1 -5 6
-1 7 4 12 1 12 -8 0 -9 5 -16 10 -16 14 0 1 50 -18 73 -15 16 -98 67 -111 67
-3 0 1 -5 9 -10 11 -7 7 -10 -17 -10 -17 0 -40 -3 -50 -6 -15 -5 -15 -4 -3 5
8 6 13 11 10 12 -3 0 -23 2 -45 4 l-40 4 30 -13z"/>
<path d="M903 2684 c-3 -8 -1 -25 4 -37 8 -18 10 -16 9 16 -1 41 -4 45 -13 21z"/>
<path d="M1616 2675 c-9 -26 -7 -32 5 -12 6 10 9 21 6 23 -2 3 -7 -2 -11 -11z"/>
<path d="M1320 2660 c0 -5 5 -10 11 -10 5 0 7 5 4 10 -3 6 -8 10 -11 10 -2 0
-4 -4 -4 -10z"/>
<path d="M1698 2583 c7 -3 16 -2 19 1 4 3 -2 6 -13 5 -11 0 -14 -3 -6 -6z"/>
<path d="M1112 2554 c-24 -14 -41 -28 -38 -32 3 -3 15 3 25 12 11 10 37 24 58
32 22 7 30 13 18 13 -11 1 -39 -11 -63 -25z"/>
<path d="M1241 2577 c9 -8 89 -36 89 -32 0 8 -58 35 -76 35 -10 0 -15 -2 -13
-3z"/>
<path d="M1640 2565 c-14 -8 -20 -14 -15 -14 6 0 21 6 35 14 14 8 21 14 15 14
-5 0 -21 -6 -35 -14z"/>
<path d="M1839 2555 c23 -14 46 -25 50 -25 10 1 -73 50 -84 50 -5 0 10 -11 34
-25z"/>
<path d="M1648 2549 c-27 -12 -48 -25 -48 -29 0 -11 70 -18 76 -8 3 4 -5 8
-18 8 -22 1 -22 1 -4 15 26 20 33 19 39 -5 8 -30 84 -29 95 1 7 18 10 19 21 6
10 -13 8 -18 -16 -32 -15 -9 -19 -13 -8 -9 37 12 61 12 98 -1 61 -21 50 -4
-21 32 -86 44 -149 50 -214 22z m102 -8 c0 -13 -39 -21 -47 -9 -3 6 -1 8 5 4
6 -3 13 -2 17 4 8 12 25 13 25 1z m17 -13 c-3 -8 -6 -5 -6 6 -1 11 2 17 5 13
3 -3 4 -12 1 -19z"/>
<path d="M1140 2535 c-25 -14 -57 -30 -72 -36 -30 -12 -38 -29 -13 -29 8 0 15
5 15 12 0 6 3 9 6 5 3 -3 17 -2 30 4 19 7 26 5 30 -6 4 -8 16 -15 28 -15 20 0
20 1 -4 20 -23 18 -24 20 -9 35 15 15 17 15 23 -9 5 -21 12 -26 39 -26 38 0
53 9 58 32 4 15 7 15 29 3 l25 -14 -23 -1 c-13 0 -21 -4 -18 -9 7 -11 59 -1
68 13 11 16 10 26 -3 26 -5 0 -7 -4 -4 -10 9 -14 3 -13 -46 10 -59 26 -105 25
-159 -5z m110 -5 c21 -13 10 -18 -29 -13 -23 4 -29 8 -20 14 18 11 30 11 49
-1z"/>
<path d="M1570 2520 c1 -16 27 -56 34 -49 2 2 -5 18 -15 34 -11 17 -19 23 -19
15z"/>
<path d="M2073 2503 c-7 -3 -13 -9 -13 -14 0 -6 4 -8 9 -5 13 9 31 -18 30 -45
0 -13 3 -42 6 -65 5 -25 3 -50 -4 -63 -7 -12 -8 -21 -2 -21 5 0 12 6 14 13 4
9 6 9 6 -1 2 -26 -20 -52 -64 -78 -39 -23 -45 -30 -45 -60 0 -19 -4 -34 -10
-34 -5 0 -7 -6 -4 -14 8 -20 -48 -146 -95 -213 -22 -32 -63 -82 -90 -112 -28
-29 -51 -58 -51 -65 1 -15 102 96 149 164 69 99 111 202 111 272 0 20 10 32
45 52 66 39 70 52 55 168 -14 100 -25 129 -47 121z"/>
<path d="M1128 2433 c6 -2 18 -2 25 0 6 3 1 5 -13 5 -14 0 -19 -2 -12 -5z"/>
<path d="M2042 2350 c0 -21 3 -28 11 -23 6 4 2 -6 -11 -21 -12 -16 -21 -40
-21 -55 1 -25 2 -25 8 4 3 17 15 34 28 40 16 7 21 16 19 36 -6 53 -32 68 -34
19z"/>
<path d="M941 2304 c0 -11 3 -14 6 -6 3 7 2 16 -1 19 -3 4 -6 -2 -5 -13z"/>
<path d="M1644 2290 c4 -28 -9 -60 -25 -60 -6 0 -22 -9 -36 -20 -29 -23 -24
-26 10 -7 61 34 79 64 57 97 -8 12 -9 9 -6 -10z"/>
<path d="M1300 2281 c0 -6 4 -13 10 -16 6 -3 7 1 4 9 -7 18 -14 21 -14 7z"/>
<path d="M1530 2225 c-23 -19 -44 -35 -46 -35 -1 0 -20 11 -40 25 -40 27 -69
32 -80 13 -4 -6 -3 -8 3 -5 14 9 83 -20 83 -33 0 -17 62 -7 74 12 6 10 16 18
22 18 6 0 17 7 24 15 7 9 19 14 27 11 7 -3 13 -1 13 4 0 21 -40 8 -80 -25z"/>
<path d="M1310 2242 c0 -16 31 -42 69 -58 43 -18 39 -9 -11 22 -24 15 -46 32
-50 38 -5 8 -8 7 -8 -2z"/>
<path d="M1566 2143 c-6 -14 -5 -15 5 -6 7 7 10 15 7 18 -3 3 -9 -2 -12 -12z"/>
<path d="M1600 2148 c0 -9 5 -20 10 -23 13 -8 13 5 0 25 -8 13 -10 13 -10 -2z"/>
<path d="M1645 2149 c-4 -6 -5 -12 -2 -15 2 -3 7 2 10 11 7 17 1 20 -8 4z"/>
<path d="M1363 2134 c-3 -8 -1 -20 4 -25 5 -5 9 1 9 16 0 29 -4 32 -13 9z"/>
<path d="M1475 2140 c3 -5 8 -10 11 -10 2 0 4 5 4 10 0 6 -5 10 -11 10 -5 0
-7 -4 -4 -10z"/>
<path d="M1520 2146 c0 -2 7 -7 16 -10 8 -3 12 -2 9 4 -6 10 -25 14 -25 6z"/>
<path d="M1397 2119 c7 -7 15 -10 18 -7 3 3 -2 9 -12 12 -14 6 -15 5 -6 -5z"/>
<path d="M1301 2104 c0 -11 3 -14 6 -6 3 7 2 16 -1 19 -3 4 -6 -2 -5 -13z"/>
<path d="M1326 2108 c3 -4 9 -8 15 -8 5 0 9 4 9 8 0 5 -7 9 -15 9 -8 0 -12 -4
-9 -9z"/>
<path d="M1245 2091 c-3 -5 0 -13 6 -17 7 -4 9 -3 5 4 -3 6 2 13 11 15 16 4
16 5 1 6 -9 0 -19 -3 -23 -8z"/>
<path d="M1715 2065 c-12 -10 -38 -15 -70 -14 -27 1 -69 -3 -92 -10 -26 -7
-91 -10 -177 -7 -82 2 -136 0 -136 -6 0 -5 5 -6 10 -3 6 4 22 -1 35 -9 14 -9
25 -12 25 -6 0 13 123 13 168 1 17 -5 32 -6 32 -2 0 9 91 31 131 31 16 0 29
-4 29 -10 0 -14 69 23 70 38 0 15 0 15 -25 -3z"/>
<path d="M1400 2060 c0 -8 80 -4 88 5 2 2 -16 4 -42 3 -25 0 -46 -4 -46 -8z"/>
<path d="M1310 2050 c-8 -5 -10 -10 -5 -10 6 0 17 5 25 10 8 5 11 10 5 10 -5
0 -17 -5 -25 -10z"/>
<path d="M1623 1985 c-3 -9 -3 -18 -1 -21 3 -3 8 4 11 16 6 23 -1 27 -10 5z"/>
<path d="M1659 1963 c-13 -16 -12 -17 4 -4 9 7 17 15 17 17 0 8 -8 3 -21 -13z"/>
<path d="M1530 1962 c0 -4 9 -8 19 -8 11 0 17 4 15 8 -3 4 -12 8 -20 8 -8 0
-14 -4 -14 -8z"/>
<path d="M1525 1920 c-4 -7 -15 -10 -25 -7 -13 3 -17 0 -13 -9 3 -8 9 -14 15
-14 13 0 42 30 35 36 -3 3 -8 0 -12 -6z"/>
<path d="M1418 1913 c7 -3 16 -2 19 1 4 3 -2 6 -13 5 -11 0 -14 -3 -6 -6z"/>
<path d="M1903 1770 c0 -47 2 -66 4 -42 2 23 2 61 0 85 -2 23 -4 4 -4 -43z"/>
<path d="M1740 1770 c0 -5 5 -10 11 -10 5 0 7 5 4 10 -3 6 -8 10 -11 10 -2 0
-4 -4 -4 -10z"/>
<path d="M1910 1673 c0 -5 14 -28 31 -49 27 -34 30 -44 24 -79 -21 -132 -183
-275 -364 -321 -108 -27 -297 -2 -386 51 -89 52 -165 158 -165 230 0 34 6 45
37 73 l38 33 -42 -20 c-23 -12 -44 -25 -47 -30 -4 -5 -39 -26 -79 -46 -39 -20
-90 -49 -112 -65 -110 -80 -213 -145 -440 -280 -214 -128 -261 -166 -303 -245
-33 -61 -82 -195 -88 -240 l-5 -40 16 35 c9 19 20 37 24 40 4 3 14 29 21 59 9
38 15 49 22 40 7 -10 8 -9 4 6 -9 30 36 114 87 166 39 39 312 219 332 219 4 0
30 16 59 35 29 19 56 35 60 35 4 0 12 5 19 10 17 14 156 108 190 128 16 9 45
29 64 45 20 15 41 27 48 27 7 0 18 7 25 15 22 26 50 19 50 -13 0 -68 93 -195
173 -237 20 -11 37 -23 37 -28 0 -5 9 -5 20 -2 15 5 20 2 20 -11 0 -10 3 -14
7 -11 3 4 18 0 32 -10 24 -15 25 -15 12 0 -8 10 -9 17 -3 17 6 0 14 -5 17 -10
4 -6 11 -8 16 -5 5 4 9 1 9 -6 0 -8 3 -9 13 0 8 6 16 8 19 5 9 -8 197 -10 192
-2 -3 5 1 8 8 9 7 0 20 2 28 4 8 2 24 6 35 8 20 5 103 46 139 70 20 13 73 64
118 115 26 29 65 124 70 172 l3 25 19 -22 c11 -12 24 -19 29 -16 5 3 21 -6 35
-19 25 -23 70 -51 195 -121 27 -15 56 -35 64 -43 8 -8 18 -12 22 -9 5 2 19 -6
31 -18 13 -12 31 -22 39 -24 9 -1 21 -9 27 -17 6 -9 16 -16 22 -16 5 0 12 -7
16 -15 3 -8 12 -12 21 -9 8 3 15 2 15 -3 0 -5 14 -20 31 -32 18 -13 28 -17 23
-10 -8 14 49 -25 96 -66 14 -11 41 -32 62 -45 33 -22 78 -80 62 -80 -4 0 1
-10 12 -22 31 -36 82 -160 140 -343 23 -72 30 -84 32 -59 6 62 -131 416 -192
495 -29 37 -337 238 -552 360 -60 33 -122 71 -139 83 -16 13 -50 33 -75 46
-25 13 -62 40 -82 59 -21 19 -38 30 -38 24z"/>
<path d="M1599 1473 c-13 -16 -12 -17 4 -4 9 7 17 15 17 17 0 8 -8 3 -21 -13z"/>
<path d="M1606 1383 c-6 -14 -5 -15 5 -6 7 7 10 15 7 18 -3 3 -9 -2 -12 -12z"/>
<path d="M970 1381 c0 -6 4 -13 10 -16 6 -3 7 1 4 9 -7 18 -14 21 -14 7z"/>
<path d="M1665 1359 c-4 -6 -5 -12 -2 -15 2 -3 7 2 10 11 7 17 1 20 -8 4z"/>
<path d="M1035 1280 c10 -11 20 -20 23 -20 3 0 -3 9 -13 20 -10 11 -20 20 -23
20 -3 0 3 -9 13 -20z"/>
<path d="M1865 1234 l-40 -36 43 32 c36 27 49 40 40 40 -2 0 -21 -16 -43 -36z"/>
<path d="M1087 1227 c53 -42 68 -50 28 -14 -22 20 -44 36 -48 37 -5 0 4 -10
20 -23z"/>
<path d="M1799 1183 c-13 -16 -12 -17 4 -4 16 13 21 21 13 21 -2 0 -10 -8 -17
-17z"/>
<path d="M1160 1175 c0 -7 81 -47 86 -43 2 3 -17 14 -41 26 -25 12 -45 20 -45
17z"/>
<path d="M1746 1157 c-16 -12 -16 -13 3 -13 11 0 18 3 15 7 -2 4 2 10 8 12 7
3 8 6 2 6 -5 1 -18 -5 -28 -12z"/>
<path d="M1655 1120 c-13 -6 -15 -9 -5 -9 8 0 22 4 30 9 18 12 2 12 -25 0z"/>
<path d="M1208 1113 c7 -3 16 -2 19 1 4 3 -2 6 -13 5 -11 0 -14 -3 -6 -6z"/>
<path d="M1325 1106 c22 -7 39 -16 37 -20 -2 -4 0 -11 4 -14 4 -4 4 -1 0 6 -5
9 4 12 36 13 l43 1 -50 8 c-27 4 -63 10 -80 14 -18 3 -14 0 10 -8z"/>
<path d="M1598 1103 c6 -2 18 -2 25 0 6 3 1 5 -13 5 -14 0 -19 -2 -12 -5z"/>
<path d="M1508 1093 c7 -3 16 -2 19 1 4 3 -2 6 -13 5 -11 0 -14 -3 -6 -6z"/>
<path d="M1548 1093 c6 -2 18 -2 25 0 6 3 1 5 -13 5 -14 0 -19 -2 -12 -5z"/>
<path d="M1630 1090 c-18 -12 -2 -12 25 0 13 6 15 9 5 9 -8 0 -22 -4 -30 -9z"/>
<path d="M2801 974 c0 -11 3 -14 6 -6 3 7 2 16 -1 19 -3 4 -6 -2 -5 -13z"/>
<path d="M1467 889 c7 -7 15 -10 18 -7 3 3 -2 9 -12 12 -14 6 -15 5 -6 -5z"/>
<path d="M2795 850 c-3 -5 -1 -10 4 -10 6 0 11 5 11 10 0 6 -2 10 -4 10 -3 0
-8 -4 -11 -10z"/>
<path d="M2790 819 c0 -5 5 -7 10 -4 6 3 10 8 10 11 0 2 -4 4 -10 4 -5 0 -10
-5 -10 -11z"/>
<path d="M2659 771 c-3 -8 -2 -36 1 -63 4 -26 4 -50 2 -53 -3 -2 -6 -28 -8
-57 -1 -29 -6 -73 -10 -98 -4 -25 -4 -43 -1 -40 3 3 5 7 5 10 1 3 6 19 12 35
7 17 13 69 14 117 3 88 -6 175 -15 149z"/>
<path d="M2785 762 c-5 -4 -17 -16 -25 -27 -11 -15 -7 -14 13 4 24 22 32 31
25 31 -2 0 -7 -4 -13 -8z"/>
<path d="M2516 745 c4 -8 11 -15 16 -15 6 0 5 6 -2 15 -7 8 -14 15 -16 15 -2
0 -1 -7 2 -15z"/>
<path d="M481 714 c0 -11 3 -14 6 -6 3 7 2 16 -1 19 -3 4 -6 -2 -5 -13z"/>
<path d="M2745 688 c-2 -7 -9 -51 -16 -98 -6 -47 -15 -90 -20 -96 -5 -6 -10
-20 -12 -32 -2 -12 -6 -24 -9 -28 -4 -3 -4 -12 -1 -20 3 -8 0 -14 -6 -14 -16
0 -43 -66 -39 -94 3 -21 5 -20 19 10 9 19 12 31 7 28 -4 -3 3 11 17 32 14 20
30 55 36 78 6 23 14 48 18 56 4 8 6 27 6 43 -1 15 2 27 5 27 3 0 6 27 7 60 2
56 -3 76 -12 48z"/>
<path d="M454 656 c-7 -16 -8 -29 -2 -38 8 -10 9 -9 5 4 -3 9 -1 18 5 20 6 2
9 11 7 21 -3 13 -6 12 -15 -7z"/>
<path d="M2550 659 c7 -11 14 -18 17 -15 8 8 -5 36 -17 36 -7 0 -7 -6 0 -21z"/>
<path d="M144 555 c15 -168 63 -303 146 -414 54 -71 51 -48 -3 31 -24 35 -51
82 -60 105 -29 74 -66 217 -70 271 -2 29 -7 56 -11 60 -5 4 -5 -20 -2 -53z"/>
<path d="M430 581 c0 -25 6 -27 13 -6 4 8 2 17 -3 20 -6 4 -10 -3 -10 -14z"/>
<path d="M200 573 c0 -5 5 -15 10 -23 7 -12 9 -10 7 8 -1 19 -17 33 -17 15z"/>
<path d="M2583 555 c0 -8 4 -12 9 -9 5 3 6 10 3 15 -9 13 -12 11 -12 -6z"/>
<path d="M2513 540 c8 -14 23 -51 32 -82 10 -32 21 -58 25 -58 12 0 -38 133
-57 150 -14 14 -14 13 0 -10z"/>
<path d="M413 543 c4 -3 0 -11 -9 -17 -12 -9 -13 -17 -5 -36 l10 -25 0 28 c1
15 6 27 11 27 6 0 10 7 10 15 0 8 -5 15 -12 15 -6 0 -8 -3 -5 -7z"/>
<path d="M2588 485 c2 -14 9 -25 14 -25 6 0 7 7 4 16 -3 9 -6 20 -6 25 0 5 -4
9 -9 9 -4 0 -6 -11 -3 -25z"/>
<path d="M375 427 c-4 -23 -9 -60 -12 -82 -2 -21 -7 -44 -10 -50 -4 -7 -3 -7
4 0 6 6 18 39 28 74 9 36 19 70 22 77 2 6 -2 14 -10 17 -11 4 -17 -6 -22 -36z"/>
<path d="M2601 418 c5 -18 9 -46 10 -63 l1 -30 8 26 c4 16 3 42 -4 63 -14 45
-28 48 -15 4z"/>
<path d="M2651 434 c0 -11 3 -14 6 -6 3 7 2 16 -1 19 -3 4 -6 -2 -5 -13z"/>
<path d="M320 400 c0 -11 4 -20 9 -20 5 0 7 9 4 20 -3 11 -7 20 -9 20 -2 0 -4
-9 -4 -20z"/>
<path d="M2753 395 c0 -8 4 -12 9 -9 4 3 8 9 8 15 0 5 -4 9 -8 9 -5 0 -9 -7
-9 -15z"/>
<path d="M2566 382 c-5 -8 2 -63 8 -70 2 -2 4 15 4 38 1 40 -2 48 -12 32z"/>
<path d="M2903 383 c-15 -5 -17 -23 -4 -23 5 0 11 7 15 15 3 8 4 15 3 14 -1 0
-8 -3 -14 -6z"/>
<path d="M2721 335 c-7 -38 -10 -87 -4 -75 3 8 13 24 22 34 9 11 11 16 4 13
-7 -5 -13 1 -16 15 -2 13 -5 19 -6 13z"/>
<path d="M2895 329 c-4 -6 -5 -12 -2 -15 2 -3 7 2 10 11 7 17 1 20 -8 4z"/>
<path d="M1148 273 c7 -3 16 -2 19 1 4 3 -2 6 -13 5 -11 0 -14 -3 -6 -6z"/>
<path d="M2636 245 c-25 -19 -47 -63 -35 -70 5 -4 9 1 9 9 0 21 42 64 58 59 6
-3 12 0 12 6 0 15 -21 13 -44 -4z"/>
<path d="M2689 223 c-13 -16 -12 -17 4 -4 16 13 21 21 13 21 -2 0 -10 -8 -17
-17z"/>
<path d="M2546 191 c-3 -5 1 -11 9 -14 9 -4 12 -1 8 9 -6 16 -10 17 -17 5z"/>
<path d="M2578 86 c-19 -14 -26 -82 -8 -71 6 4 8 16 5 27 -4 12 0 27 11 39 20
22 17 24 -8 5z"/>
<path d="M155 40 c-3 -5 -1 -10 4 -10 6 0 11 5 11 10 0 6 -2 10 -4 10 -3 0 -8
-4 -11 -10z"/>
</g>
</svg>
